<svg width="78" height="82" viewBox="0 0 78 82" fill="none" xmlns="http://www.w3.org/2000/svg">
<path d="M6.91402 21.4088C7.53927 20.5683 8.36269 19.4306 9.0221 18.6174C10.9969 16.3761 11.2532 16.0823 13.0504 14.4252C13.5834 13.9878 14.2154 13.4617 14.8339 12.9663C10.2726 16.8271 9.69177 21.1013 13.8772 23.7424C13.8704 23.7424 13.8704 23.7424 13.8704 23.7493C19.7231 27.2753 32.5493 26.5133 42.6694 21.9965C52.4719 17.6232 56.0901 11.3673 51.2521 7.64992C47.0052 6.85383 41.9417 6.76158 36.5844 7.47908L36.0274 6.56L36.4887 5.03617C39.6389 4.75258 42.6319 4.82092 45.2149 5.26167C45.8401 5.36758 46.6635 5.54867 47.2785 5.6785C48.4675 5.96892 49.1133 6.14317 49.8889 6.39258C50.6815 6.62833 51.358 6.86408 52.5368 7.30142C53.6916 7.75583 54.1904 7.96083 55.1164 8.42208C56.1533 8.89517 57.1607 9.43028 58.1333 10.0245C65.8413 14.8728 61.0477 23.7185 47.4459 29.7797C33.8818 35.8203 16.5969 36.7702 8.85127 31.98C8.84785 31.9732 8.8376 31.9663 8.8171 31.9595H8.83077C4.60094 29.2808 4.15677 25.3927 6.91402 21.4088ZM42.2048 55.3022L42.0954 49.856L38.2244 45.551C25.4358 48.4483 12.8659 47.8265 5.87535 43.7094C5.85144 43.6821 5.79335 43.6548 5.76944 43.6274C1.81294 41.1913 0.83577 38.048 1.13302 34.6313C0.207104 39.6299 0.131937 41.4339 0.265187 45.7116C0.429187 48.3903 1.97694 50.8605 5.08952 52.808L5.11344 52.8353C12.5652 57.4683 28.0905 58.4728 42.2048 55.3022ZM58.3485 61.5376C40.2983 68.7775 17.7073 69.2046 7.8946 62.5045C8.95431 65.0942 10.3962 67.5104 12.1723 69.6727C21.1786 75.8227 41.9144 75.4297 58.4749 68.7843C68.168 64.8996 74.2839 59.7302 75.8897 54.8853L76.3407 53.4264C77.4101 49.7296 77.6117 46.6512 77.7825 43.911C77.5878 49.8594 70.5802 56.6244 58.3485 61.5376ZM18.5034 75.481C19.0705 76.0208 20.854 78.2109 29.8911 80.6299C32.334 81.1698 38.484 82.902 49.8444 80.3839L49.9128 79.3487L49.0142 77.941C38.4738 80.4352 26.7649 79.6015 18.5034 75.481ZM44.5862 32.4002L54.1836 39.6743C54.1836 39.6743 56.237 41.1538 54.2998 42.1924C52.3694 43.2208 47.4118 45.7389 47.4118 45.7389L42.5157 43.911L40.0591 45.0043L44.3914 48.7661L44.4256 54.6188L46.971 53.4879L48.6589 48.544C48.6589 48.544 53.8419 46.5487 55.8988 45.797C57.9659 45.0624 57.6891 47.5771 57.6891 47.5771L56.6709 59.573L60.0534 58.0697L65.6226 41.8849C65.6226 41.8849 68.5746 40.4499 70.6519 39.1892C72.7259 37.9284 73.4365 35.8374 73.4365 35.8374C73.4365 35.8374 71.4139 34.9662 69.0837 35.6666C66.7535 36.3602 63.7161 37.597 63.7161 37.597L47.9584 30.9038L44.5862 32.4002ZM24.2809 9.38558L30.7965 14.5755L32.5766 14.309L29.0301 9.65208C29.0301 9.65208 28.2579 8.68858 29.2966 8.45967C30.3421 8.22733 32.9866 7.6875 32.9866 7.6875L34.9751 9.27625L36.3144 9.07808L34.7974 6.66592L35.5969 3.99067L34.302 4.17858L32.7679 6.21492C32.7679 6.21492 30.0756 6.46775 29.0164 6.55658C27.9504 6.63858 28.4083 5.494 28.4083 5.494L30.4514 0L28.6611 0.263083L23.9461 7.12717C23.9461 7.12717 22.3744 7.41417 21.2367 7.73875C20.0955 8.05992 19.4942 8.94142 19.4942 8.94142C19.4942 8.94142 20.3313 9.61792 21.51 9.594C22.699 9.57008 24.2809 9.38558 24.2809 9.38558ZM56.483 76.0721L52.2669 73.8683L51.2965 74.2066L53.7941 76.4411C53.7941 76.4411 54.3271 76.8955 53.7668 77.1381C53.2064 77.3773 51.7783 77.9649 51.7783 77.9649L50.5995 77.4388L49.8991 77.6916L50.8797 78.7371L50.784 80.2643L51.5152 80.0115L52.0619 78.7713C52.0619 78.7713 53.5447 78.3305 54.1358 78.1733C54.7234 78.0127 54.5902 78.7029 54.5902 78.7029L54.0333 82L55.007 81.6618L56.9169 77.3021C56.9169 77.3021 57.7609 76.9707 58.3656 76.6666C58.9704 76.3625 59.2095 75.8022 59.2095 75.8022C59.2095 75.8022 58.6731 75.5083 58.0103 75.6553C57.344 75.7953 56.483 76.0721 56.483 76.0721Z" fill="#313041"/>
</svg>
